<svg enable-background="new 0 0 512 512" viewBox="0 0 512 512" xmlns="http://www.w3.org/2000/svg"><path d="m229.6 33.7c116.8-14.9 215.8 65.5 218.4 183.9 0 1.1-.5 1.7-1.6 1.7l-79.4-.2c-1.7 0-2.5-.8-2.6-2.5-4.4-147.8-215.8-147.4-218.4 1.7 0 1.4-.8 2.1-2.2 2.1l-78.7-.9c-1.4 0-2.1-.7-2.1-2.1.9-97 73.2-171.9 166.6-183.7z" fill="#242a2c"/><circle cx="254.1" cy="218.9" fill="#242a2c" r="36.4"/><path d="m259.7 371.2 75.5-80.3c.8-.8 1.8-1.2 2.9-1.2l101.9.8c2.1 0 2.4.8.9 2.3l-180.6 189.2c-1.9 2-5 2-7 .1 0 0-.1-.1-.1-.1l-180.9-189.2c-.5-.6-.5-1.5.1-2.1.3-.2.6-.4 1-.4l99.1-.7c2.7 0 5.2 1.1 7.1 3l75.2 78.6c1.3 1.4 3.5 1.4 4.9.1-.1 0 0-.1 0-.1z" fill="#05cff4"/></svg>